# xmcd CD database file
#
# Track frame offsets:
#	150
#	11962
#	38537
#	51072
#	68805
#	97640
#	111720
#	136200
#	149375
#	168090
#	180300
#	196032
#	204397
#	223157
#	247450
#	266005
#
# Disc length: 3742 seconds
#
# Revision: 0
# Processed by: cddbd v1.5PL3 Copyright (c) Steve Scherf et al.
# Submitted via: CDex 1.60beta1
#
DISCID=e70e9c10
DTITLE=Dick Wellstood - This Is the One...Dig!
DYEAR=1975
DGENRE=Jazz
TTITLE0=Carolina Shout
TTITLE1=Snowy Morning Blues
TTITLE2=If Dreams Come True
TTITLE3=Sugar
TTITLE4=Paganini's Thing
TTITLE5=Softly, As in a Morning Sunrise
TTITLE6=Keepin' Out of Mischief Now
TTITLE7=Everything I've Got
TTITLE8=You Are the Sunshine of My Life
TTITLE9=The Steeplechase
TTITLE10=Giant Steps
TTITLE11=You've Got That Thing
TTITLE12=Viper's Drag
TTITLE13=Rosetta
TTITLE14=You Go to My Head
TTITLE15=The Mule Walk
EXTD=YEAR: 1975
EXTT0=
EXTT1=
EXTT2=
EXTT3=
EXTT4=
EXTT5=
EXTT6=
EXTT7=
EXTT8=
EXTT9=
EXTT10=
EXTT11=
EXTT12=
EXTT13=
EXTT14=
EXTT15=
PLAYORDER=
